# xmcd
#
# Track frame offsets: 
#        150
#        19658
#        31658
#        50034
#        70584
#        86906
#        101447
#        119503
#        140599
#        152523
#        170353
#        185511
#        201807
#        219500
#        245473
#        265236
#        283743
#        299874
#        319204
#        335000
#
# Disc length: 4755 seconds
#
# Revision: 0
# Processed by: cddbd v1.5.2PL0 Copyright (c) Steve Scherf et al.
# Submitted via: ExactAudioCopy v0.99pb4
#
DISCID=34129114
DTITLE=Various Artist - Las 100 De Los Músicos, Poetas Y Locos CD 2
DYEAR=2008
DGENRE=Rock
TTITLE0=Enrique Bunbury - Que Tengas Suertecita
TTITLE1=Los Ronaldos - El Rock Del Cayetano
TTITLE2=Tam Tam Go! - Espaldas Mojadas
TTITLE3=Los Prisioneros - Estrechez De Corazón
TTITLE4=Nacha Pop - Antes De Que Salga El Sol
TTITLE5=Paralamas - Canción Del Marinero
TTITLE6=Radio Kaos - Ritual
TTITLE7=El Gran Silencio - Lo Que El Viento A Juárez
TTITLE8=Los Pericos - Monkey Man
TTITLE9=Víctimas Del Doctor Cerebro - Brujerías
TTITLE10=Jarabe De Palo - Perro Apaleao
TTITLE11=Plastilina Mosh - Aquamosh
TTITLE12=Los Tetas - Corazón De Sandía
TTITLE13=Lucybell - Mataz
TTITLE14=Ely Guerra - De La Calle
TTITLE15=Miguel Ríos - Como Unos Viejos Calcetines
TTITLE16=Tiro De Gracia - Viaje Sin Rumbo
TTITLE17=Enrique Bunbury - El Extranjero
TTITLE18=Los Prisioneros - Corazones Rojos
TTITLE19=Enanitos Verdes - Igual Que Ayer
EXTD=
EXTT0=
EXTT1=
EXTT2=
EXTT3=
EXTT4=
EXTT5=
EXTT6=
EXTT7=
EXTT8=
EXTT9=
EXTT10=
EXTT11=
EXTT12=
EXTT13=
EXTT14=
EXTT15=
EXTT16=
EXTT17=
EXTT18=
EXTT19=
PLAYORDER=
